<?xml version="1.0" encoding="UTF-8"?>
<svg width="24px" height="29px" viewBox="0 0 24 29" version="1.1" xmlns="http://www.w3.org/2000/svg" xmlns:xlink="http://www.w3.org/1999/xlink">
    <!-- Generator: Sketch 59.1 (86144) - https://sketch.com -->
    <title>shopping-bag-sad</title>
    <desc>Created with Sketch.</desc>
    <g id="Page-1" stroke="none" stroke-width="1" fill="none" fill-rule="evenodd">
        <g id="Header" transform="translate(-309.000000, 0.000000)">
            <g id="shopping-bag-sad">
                <g transform="translate(309.000000, 1.000000)">
                    <path d="M7,11 L7,5.5 C7,2.46243388 9.46243388,0 12.5,0 C15.5375661,0 18,2.46243388 18,5.5 L18,11" id="Path" stroke="#1A202C" stroke-width="1.5" stroke-linecap="round" stroke-linejoin="round"></path>
                    <path d="M23.2123419,24.3461417 L23.2124076,24.3470787 L22.0754783,8.28679742 C22.0549371,7.98837961 21.7945503,7.75016984 21.4734093,7.75 L2.53046928,7.7499999 C2.20893186,7.75016984 1.94854505,7.98837961 1.92790212,8.28825517 L0.791140305,24.3461417 C0.763712347,24.7406016 0.75,25.1350146 0.75,25.5294118 C0.75,26.4758781 1.54157315,27.25 2.52628345,27.25 L21.4734093,27.25 C22.4581196,27.25 23.2496927,26.4758781 23.2497069,25.5248104 C23.2521172,25.131948 23.2396635,24.7390719 23.2123419,24.3461417 Z" id="Path" stroke="#1A202C" stroke-width="1.5"></path>
                    <g id="Group-2" transform="translate(7.000000, 14.000000)" stroke="#046E3D" stroke-linecap="round" stroke-linejoin="round">
                        <path d="M3.04102273,0.903272727 C1.68875,1.76154545 1.08420455,3.09927273 3.34965909,4.54909091 C3.58113636,7.28427273 4.87215909,7.42827273 6.37238636,6.48163636 C7.87261364,5.535 9.39988636,2.17227273 9.03795455,-1.77635684e-15 C6.79238636,0.936818182 4.73693182,-0.166090909 3.04102273,0.903272727 Z" id="Path" stroke-width="1.5"></path>
                        <path d="M3.50830476e-14,8.73818182 C3.50830476e-14,8.73818182 3.55886364,3.05018182 6.84806818,2.17227273" id="Path"></path>
                    </g>
                </g>
            </g>
        </g>
    </g>
</svg>