<?xml version="1.0" encoding="UTF-8"?>
<svg width="300px" height="154px" viewBox="0 0 300 154" version="1.1" xmlns="http://www.w3.org/2000/svg" xmlns:xlink="http://www.w3.org/1999/xlink">
    <!-- Generator: Sketch 59.1 (86144) - https://sketch.com -->
    <title>logo</title>
    <desc>Created with Sketch.</desc>
    <g id="Page-1" stroke="none" stroke-width="1" fill="none" fill-rule="evenodd">
        <g id="logo" transform="translate(0.062860, 0.466964)" fill="#000000" fill-rule="nonzero">
            <path d="M185.130297,30.989011 C176.833594,29.1758242 170.954473,20.1098901 173.09733,12.3626374 C175.240187,4.56043956 181.009418,0 188.701725,0 C195.075352,0 200.679747,3.35164835 203.31711,8.84615385 C205.020407,12.4725275 205.020407,18.6263736 203.31711,22.2527473 C201.888539,25.2197802 198.152275,28.9010989 195.350077,30.0549451 C192.87755,31.0989011 187.712714,31.5384615 185.130297,30.989011 Z" id="Path" transform="translate(188.624111, 15.613471) scale(-1, 1) rotate(-180.000000) translate(-188.624111, -15.613471) "></path>
            <path d="M70.0204067,152.045068 C63.3720551,149.847266 59.9105166,146.660453 54.5808463,137.539574 C54.0313958,136.605508 53.8665606,136.605508 51.5588683,137.429684 C44.1412859,140.067046 37.7127144,140.891222 31.1193078,140.067046 C15.5698573,138.143969 4.74568147,130.836277 1.11930784,119.737376 C-0.968604243,113.418694 -0.0894833638,105.671442 3.3720551,99.5725406 C5.0753518,96.4956176 8.53689026,93.0890242 12.4929342,90.5066066 C14.3610661,89.2978154 15.8445826,88.0340791 15.7346925,87.7044088 C15.6797474,87.4296835 14.4709562,86.8252879 13.1522749,86.3857275 C8.70172543,84.8472659 4.52590125,81.3857275 2.10831883,77.1549582 C1.06436279,75.2868264 0.84458257,74.1329802 0.84458257,69.4626505 C0.789637515,63.8582549 1.22919795,62.3197934 3.9764507,58.1989143 C4.85557158,56.8252879 4.85557158,56.7153978 3.42700015,54.6274857 C-3.2213515,44.7923209 -0.0894833638,36.5505626 12.3280991,31.2208923 C18.2072199,28.6934198 32.1083188,27.2099033 42.5478793,28.0340791 C61.9984287,29.4626505 71.7237034,34.0230901 76.3940331,43.8033099 C77.9324947,46.935178 78.0973298,47.8142989 78.0973298,52.7044088 C78.0973298,60.1769363 76.6138133,64.5175956 72.5478793,68.8033099 C70.0753518,71.4406725 67.1632639,73.1439692 62.6028243,74.6824308 C59.306121,75.7813319 57.4929342,75.891222 38.6467804,76.2208923 C22.6028243,76.5505626 18.0973298,76.7703428 17.3830441,77.3747384 C15.9544727,78.5285846 16.229198,81.4406725 17.8226045,83.0890242 C20.0753518,85.3417714 22.2182089,85.946167 24.9654617,85.2318813 C28.7566705,84.2428703 37.2182089,83.8582549 41.8335936,84.5175956 C46.6687584,85.1769363 53.9764507,87.4846286 56.1193078,89.0230901 C56.8885386,89.5725406 57.7676595,90.0670461 58.0423848,90.0670461 C58.7017254,90.0670461 62.4929342,93.2538593 64.9654617,95.7813319 C67.3280991,98.3088044 69.4709562,102.374738 70.5698573,106.605508 C73.0423848,115.781332 69.306121,126.111002 61.3940331,132.045068 C57.6028243,134.847266 58.5918353,135.451662 66.7237034,135.121991 C68.5368903,135.067046 71.284143,134.517596 72.7676595,133.968145 C74.306121,133.418694 75.7896375,132.924189 76.1193078,132.924189 C76.4489782,132.924189 76.9984287,134.572541 77.3830441,136.660453 C77.7676595,138.69342 78.31711,141.715398 78.6467804,143.363749 C78.9215056,145.012101 79.4160111,147.429684 79.6907364,148.69342 C80.5698573,152.814299 80.6797474,152.704409 75.9544727,152.649464 C73.5918353,152.649464 70.9544727,152.374738 70.0204067,152.045068 Z M38.31711,133.253859 C40.1302969,132.319793 41.284143,131.056057 42.6577694,128.528585 C47.3280991,120.067046 46.4489782,99.6274857 41.1193078,93.1989143 C38.2072199,89.6824308 33.9764507,89.4626505 30.5698573,92.7044088 C28.1522749,95.0121011 27.1632639,97.5945187 26.0094177,104.35276 C23.0973298,122.154958 29.6907364,137.704409 38.31711,133.253859 Z M37.6028243,50.7263868 C49.4160111,50.5615516 57.0533738,50.2318813 58.3720551,49.8472659 C62.3830441,48.6384747 63.9215056,44.0780352 61.284143,41.0560571 C58.0973298,37.2648483 49.8555716,35.0670461 38.9764507,35.0670461 C28.8116155,35.0121011 24.0313958,36.3307824 19.1962309,40.5066066 C16.6138133,42.6494637 14.251176,47.2648483 14.251176,50.0121011 C14.251176,51.7153978 14.251176,51.7153978 16.6138133,51.3857275 C17.8775496,51.1659472 27.3280991,50.891222 37.6028243,50.7263868 Z" id="Shape" transform="translate(40.082735, 90.234907) scale(-1, 1) rotate(-180.000000) translate(-40.082735, -90.234907) "></path>
            <path d="M117.273154,121.837957 C111.394033,121.178617 101.668758,119.640155 96.9434837,118.596199 C90.295132,117.112682 88.6467804,116.673122 88.31711,116.123671 C87.6577694,115.189606 87.7676595,94.5302649 88.4819452,94.1456495 C88.8116155,93.9258693 89.9654617,94.4753198 91.0643628,95.3544407 C101.229198,103.431364 107.822605,107.881913 115.624802,111.947847 C121.943484,115.244551 125.624802,115.629166 127.328099,113.266529 C129.306121,110.354441 129.745681,107.991803 130.020407,98.0467484 L130.350077,88.2115836 L128.75667,88.5412539 C127.87755,88.706089 125.569857,89.2555396 123.591835,89.7500451 C120.844583,90.4643308 118.20722,90.5742209 112.053374,90.4093858 C103.427,90.1896055 99.0313958,89.2005945 94.9105166,86.4533418 C93.7566705,85.684111 92.6577694,85.0797154 92.3830441,85.0797154 C92.1632639,85.0797154 90.8445826,83.9258693 89.4709562,82.4972978 C83.4819452,76.2885066 81.4489782,71.0687264 81.9984287,63.3214737 C82.3280991,58.8159792 82.6028243,57.8269682 84.9105166,52.9368583 C87.3830441,47.7720231 92.4929342,43.3764187 98.6467804,41.1786165 C101.119308,40.2994956 103.262165,40.0247704 107.218209,40.0247704 C116.009418,40.0247704 123.042385,43.0467484 128.53689,49.2555396 C130.020407,50.9588363 131.339088,52.2225726 131.448978,52.0577374 C131.558868,51.9478473 132.053374,50.9038912 132.602824,49.6951 C135.514912,43.3764187 141.284143,40.0247704 149.141286,40.0247704 C158.042385,40.0247704 163.921506,44.1456495 166.394033,52.0027923 C167.053374,54.2005945 166.284143,54.7500451 163.64678,53.8159792 C161.394033,53.0467484 159.470956,53.9258693 157.98744,56.5082869 C156.888539,58.3214737 156.833594,59.5852099 156.503923,80.1346605 C156.119308,102.772023 156.009418,103.925869 153.481945,108.761034 C148.09733,119.25554 135.459967,123.761034 117.273154,121.837957 Z M129.855572,82.8269682 C130.020407,82.662133 130.185242,76.9478473 130.185242,70.0247704 C130.240187,56.5632319 130.295132,56.618177 127.218209,55.0247704 C125.075352,53.9258693 118.811616,53.9258693 116.668758,55.0247704 C114.635791,56.1236715 111.888539,59.0357594 110.679747,61.3983967 C109.470956,63.7610341 108.976451,70.9038912 109.800627,73.8709242 C111.009418,78.4313638 114.470956,81.673122 119.470956,82.9368583 C121.284143,83.4313638 129.361066,83.3214737 129.855572,82.8269682 Z" id="Shape" transform="translate(124.264736, 81.147835) scale(-1, 1) rotate(-180.000000) translate(-124.264736, -81.147835) "></path>
            <path d="M250.240187,121.837957 C244.361066,121.178617 234.635791,119.640155 229.910517,118.596199 C223.262165,117.112682 221.613813,116.673122 221.284143,116.123671 C220.624802,115.189606 220.734692,94.5302649 221.448978,94.1456495 C221.778649,93.9258693 222.932495,94.4753198 224.031396,95.3544407 C234.196231,103.431364 240.789638,107.881913 248.591835,111.947847 C254.910517,115.244551 258.591835,115.629166 260.295132,113.266529 C262.273154,110.354441 262.712714,107.991803 262.98744,98.0467484 L263.31711,88.2115836 L261.723703,88.5412539 C260.844583,88.706089 258.53689,89.2555396 256.558868,89.7500451 C253.811616,90.4643308 251.174253,90.5742209 245.020407,90.4093858 C236.394033,90.1896055 231.998429,89.2005945 227.87755,86.4533418 C226.723703,85.684111 225.624802,85.0797154 225.350077,85.0797154 C225.130297,85.0797154 223.811616,83.9258693 222.437989,82.4972978 C216.448978,76.2885066 214.416011,71.0687264 214.965462,63.3214737 C215.295132,58.8159792 215.569857,57.8269682 217.87755,52.9368583 C220.350077,47.7720231 225.459967,43.3764187 231.613813,41.1786165 C234.086341,40.2994956 236.229198,40.0247704 240.185242,40.0247704 C248.976451,40.0247704 256.009418,43.0467484 261.503923,49.2555396 C262.98744,50.9588363 264.306121,52.2225726 264.416011,52.0577374 C264.525901,51.9478473 265.020407,50.9038912 265.569857,49.6951 C268.481945,43.3764187 274.251176,40.0247704 282.108319,40.0247704 C291.009418,40.0247704 296.888539,44.1456495 299.361066,52.0027923 C300.020407,54.2005945 299.251176,54.7500451 296.613813,53.8159792 C294.361066,53.0467484 292.437989,53.9258693 290.954473,56.5082869 C289.855572,58.3214737 289.800627,59.5852099 289.470956,80.1346605 C289.086341,102.772023 288.976451,103.925869 286.448978,108.761034 C281.064363,119.25554 268.427,123.761034 250.240187,121.837957 Z M262.822605,82.8269682 C262.98744,82.662133 263.152275,76.9478473 263.152275,70.0247704 C263.20722,56.5632319 263.262165,56.618177 260.185242,55.0247704 C258.042385,53.9258693 251.778649,53.9258693 249.635791,55.0247704 C247.602824,56.1236715 244.855572,59.0357594 243.64678,61.3983967 C242.437989,63.7610341 241.943484,70.9038912 242.767659,73.8709242 C243.976451,78.4313638 247.437989,81.673122 252.437989,82.9368583 C254.251176,83.4313638 262.328099,83.3214737 262.822605,82.8269682 Z" id="Shape" transform="translate(257.231768, 81.147835) scale(-1, 1) rotate(-180.000000) translate(-257.231768, -81.147835) "></path>
            <path d="M172.657769,119.688481 C172.767659,118.809361 173.262165,116.776394 173.701725,115.128042 C174.690736,111.501668 175.569857,107.215954 176.339088,102.82035 C177.053374,98.5895803 177.053374,63.5346353 176.339088,59.3038661 C175.569857,54.9082617 174.690736,50.6225474 173.701725,46.9961737 C173.262165,45.3478221 172.767659,43.3148551 172.657769,42.4357342 L172.383044,40.9522177 L189.855572,41.0621078 C205.020407,41.226943 207.383044,41.3368331 207.328099,42.0511188 C207.273154,42.4906792 206.723703,44.8533166 206.064363,47.270899 C203.701725,55.8972726 203.64678,56.5566133 203.31711,89.0291408 L202.98744,120.897273 L187.657769,121.062108 L172.383044,121.171998 L172.657769,119.688481 Z" id="Path" transform="translate(189.856033, 81.062108) scale(-1, 1) rotate(-180.000000) translate(-189.856033, -81.062108) "></path>
        </g>
    </g>
</svg>