<?xml version="1.0" encoding="UTF-8"?>
<svg width="18px" height="13px" viewBox="0 0 18 13" version="1.1" xmlns="http://www.w3.org/2000/svg" xmlns:xlink="http://www.w3.org/1999/xlink">
    <!-- Generator: Sketch 59.1 (86144) - https://sketch.com -->
    <title>Shape</title>
    <desc>Created with Sketch.</desc>
    <g id="Page-1" stroke="none" stroke-width="1" fill="none" fill-rule="evenodd">
        <g id="Header" transform="translate(-264.000000, -11.000000)" fill="#1A202C" fill-rule="nonzero">
            <g id="Shape">
                <path d="M265.285714,13.6 L280.714286,13.6 C281.424,13.6 282,13.0176 282,12.3 C282,11.5824 281.424,11 280.714286,11 L265.285714,11 C264.576,11 264,11.5824 264,12.3 C264,13.0176 264.576,13.6 265.285714,13.6 Z M280.714286,16.2 L265.285714,16.2 C264.576,16.2 264,16.7824 264,17.5 C264,18.2176 264.576,18.8 265.285714,18.8 L280.714286,18.8 C281.424,18.8 282,18.2176 282,17.5 C282,16.7824 281.424,16.2 280.714286,16.2 Z M280.714286,21.4 L265.285714,21.4 C264.576,21.4 264,21.9824 264,22.7 C264,23.4176 264.576,24 265.285714,24 L280.714286,24 C281.424,24 282,23.4176 282,22.7 C282,21.9824 281.424,21.4 280.714286,21.4 Z"></path>
            </g>
        </g>
    </g>
</svg>