
<svg width="103px" height="18px" viewBox="0 0 103 18" version="1.1" xmlns="http://www.w3.org/2000/svg" xmlns:xlink="http://www.w3.org/1999/xlink">
    <g id="Page-1" stroke="none" stroke-width="1" fill="none" fill-rule="evenodd" stroke-linecap="round" stroke-linejoin="round">
        <g id="Mobile---Ingredients" transform="translate(-15.000000, -1027.000000)" fill="#FAD935" stroke="#E4BB34" stroke-width="1.5">
            <g id="Group" transform="translate(16.000000, 1027.750000)">
                <path d="M7.82754539,0.24111995 C7.88389872,0.0960588228 8.02722961,0 8.18732429,0 C8.34741897,0 8.49074986,0.0960588228 8.54710319,0.24111995 L10.4928305,5.58148033 L15.9879151,5.58148033 C16.1488545,5.58146834 16.2927623,5.67851783 16.3485192,5.82466683 C16.404276,5.97081582 16.3600755,6.13511759 16.2377616,6.23637402 L11.645968,9.92163944 L13.5678639,15.5105617 C13.6206146,15.6642341 13.5646427,15.8332885 13.4294416,15.9286451 C13.2942405,16.0240016 13.1108565,16.0237636 12.97592,15.9280565 L8.18655553,12.5263303 L3.39488484,15.9280565 C3.2598988,16.0218577 3.07793204,16.0210728 2.94381489,15.9261107 C2.80969774,15.8311487 2.75379795,15.6635115 2.80524719,15.5105617 L4.72714303,9.92163944 L0.134580742,6.23637402 C0.0122668024,6.13511759 -0.0319337173,5.97081582 0.0238231308,5.82466683 C0.079579979,5.67851783 0.223487807,5.58146834 0.3844272,5.58148033 L5.88028053,5.58148033 L7.82754539,0.24111995 Z" id="Path-Copy-9"></path>
                <path d="M28.8275454,0.24111995 C28.8838987,0.0960588228 29.0272296,0 29.1873243,0 C29.347419,0 29.4907499,0.0960588228 29.5471032,0.24111995 L31.4928305,5.58148033 L36.9879151,5.58148033 C37.1488545,5.58146834 37.2927623,5.67851783 37.3485192,5.82466683 C37.404276,5.97081582 37.3600755,6.13511759 37.2377616,6.23637402 L32.645968,9.92163944 L34.5678639,15.5105617 C34.6206146,15.6642341 34.5646427,15.8332885 34.4294416,15.9286451 C34.2942405,16.0240016 34.1108565,16.0237636 33.97592,15.9280565 L29.1865555,12.5263303 L24.3948848,15.9280565 C24.2598988,16.0218577 24.077932,16.0210728 23.9438149,15.9261107 C23.8096977,15.8311487 23.753798,15.6635115 23.8052472,15.5105617 L25.727143,9.92163944 L21.1345807,6.23637402 C21.0122668,6.13511759 20.9680663,5.97081582 21.0238231,5.82466683 C21.07958,5.67851783 21.2234878,5.58146834 21.3844272,5.58148033 L26.8802805,5.58148033 L28.8275454,0.24111995 Z" id="Path-Copy-8"></path>
                <path d="M49.8275454,0.24111995 C49.8838987,0.0960588228 50.0272296,0 50.1873243,0 C50.347419,0 50.4907499,0.0960588228 50.5471032,0.24111995 L52.4928305,5.58148033 L57.9879151,5.58148033 C58.1488545,5.58146834 58.2927623,5.67851783 58.3485192,5.82466683 C58.404276,5.97081582 58.3600755,6.13511759 58.2377616,6.23637402 L53.645968,9.92163944 L55.5678639,15.5105617 C55.6206146,15.6642341 55.5646427,15.8332885 55.4294416,15.9286451 C55.2942405,16.0240016 55.1108565,16.0237636 54.97592,15.9280565 L50.1865555,12.5263303 L45.3948848,15.9280565 C45.2598988,16.0218577 45.077932,16.0210728 44.9438149,15.9261107 C44.8096977,15.8311487 44.753798,15.6635115 44.8052472,15.5105617 L46.727143,9.92163944 L42.1345807,6.23637402 C42.0122668,6.13511759 41.9680663,5.97081582 42.0238231,5.82466683 C42.07958,5.67851783 42.2234878,5.58146834 42.3844272,5.58148033 L47.8802805,5.58148033 L49.8275454,0.24111995 Z" id="Path-Copy-7"></path>
                <path d="M70.8275454,0.24111995 C70.8838987,0.0960588228 71.0272296,0 71.1873243,0 C71.347419,0 71.4907499,0.0960588228 71.5471032,0.24111995 L73.4928305,5.58148033 L78.9879151,5.58148033 C79.1488545,5.58146834 79.2927623,5.67851783 79.3485192,5.82466683 C79.404276,5.97081582 79.3600755,6.13511759 79.2377616,6.23637402 L74.645968,9.92163944 L76.5678639,15.5105617 C76.6206146,15.6642341 76.5646427,15.8332885 76.4294416,15.9286451 C76.2942405,16.0240016 76.1108565,16.0237636 75.97592,15.9280565 L71.1865555,12.5263303 L66.3948848,15.9280565 C66.2598988,16.0218577 66.077932,16.0210728 65.9438149,15.9261107 C65.8096977,15.8311487 65.753798,15.6635115 65.8052472,15.5105617 L67.727143,9.92163944 L63.1345807,6.23637402 C63.0122668,6.13511759 62.9680663,5.97081582 63.0238231,5.82466683 C63.07958,5.67851783 63.2234878,5.58146834 63.3844272,5.58148033 L68.8802805,5.58148033 L70.8275454,0.24111995 Z" id="Path-Copy-6"></path>
                <path d="M91.8275454,0.24111995 C91.8838987,0.0960588228 92.0272296,0 92.1873243,0 C92.347419,0 92.4907499,0.0960588228 92.5471032,0.24111995 L94.4928305,5.58148033 L99.9879151,5.58148033 C100.148854,5.58146834 100.292762,5.67851783 100.348519,5.82466683 C100.404276,5.97081582 100.360076,6.13511759 100.237762,6.23637402 L95.645968,9.92163944 L97.5678639,15.5105617 C97.6206146,15.6642341 97.5646427,15.8332885 97.4294416,15.9286451 C97.2942405,16.0240016 97.1108565,16.0237636 96.97592,15.9280565 L92.1865555,12.5263303 L87.3948848,15.9280565 C87.2598988,16.0218577 87.077932,16.0210728 86.9438149,15.9261107 C86.8096977,15.8311487 86.753798,15.6635115 86.8052472,15.5105617 L88.727143,9.92163944 L84.1345807,6.23637402 C84.0122668,6.13511759 83.9680663,5.97081582 84.0238231,5.82466683 C84.07958,5.67851783 84.2234878,5.58146834 84.3844272,5.58148033 L89.8802805,5.58148033 L91.8275454,0.24111995 Z" id="Path-Copy-5"></path>
            </g>
        </g>
    </g>
</svg>
